<?xml version="1.0" standalone="no"?>
<!DOCTYPE svg PUBLIC "-//W3C//DTD SVG 20010904//EN"
 "http://www.w3.org/TR/2001/REC-SVG-20010904/DTD/svg10.dtd">
<svg version="1.0" xmlns="http://www.w3.org/2000/svg"
 width="120.000000pt" height="43.000000pt" viewBox="0 0 120.000000 43.000000"
 preserveAspectRatio="xMidYMid meet">

<g transform="translate(0.000000,43.000000) scale(0.100000,-0.100000)"
fill="#000000" stroke="none">
<path d="M165 385 c-43 -23 -63 -50 -81 -114 -9 -31 -25 -75 -35 -98 -18 -42
-18 -43 1 -43 17 0 20 -7 20 -50 l0 -50 101 0 c90 0 100 2 97 18 -3 14 -16 17
-81 20 l-77 3 0 44 c0 24 -5 45 -11 47 -9 3 -7 20 5 58 31 96 38 111 67 125
92 48 186 -45 147 -144 -14 -35 -14 -46 0 -105 12 -51 20 -66 34 -66 22 0 22
1 4 69 -10 36 -12 61 -5 78 16 41 11 115 -11 150 -38 62 -117 89 -175 58z"/>
<path d="M193 339 c-52 -15 -85 -101 -76 -199 l6 -60 69 0 c60 0 69 2 64 16
-3 9 -6 18 -6 20 0 2 -20 4 -44 4 l-44 0 -4 48 c-8 93 34 158 87 134 33 -15
43 -58 21 -95 -16 -28 -16 -34 1 -100 16 -62 34 -89 49 -74 3 2 -2 33 -11 68
-13 47 -14 69 -6 86 14 30 14 89 1 114 -9 15 -62 51 -72 48 -2 0 -18 -5 -35
-10z"/>
<path d="M454 301 c-35 -21 -54 -65 -54 -121 0 -50 24 -70 83 -70 49 0 87 24
87 55 0 20 -46 20 -54 0 -7 -20 -52 -19 -60 1 -8 22 11 89 30 109 15 14 19 14
40 0 34 -22 64 -20 64 5 0 40 -84 53 -136 21z"/>
<path d="M626 293 c-3 -10 -10 -47 -16 -83 -6 -36 -13 -73 -16 -82 -4 -14 1
-18 19 -18 23 0 26 6 39 78 l14 77 19 -77 19 -78 36 0 36 0 17 88 c21 111 21
112 -3 112 -14 0 -22 -10 -29 -37 -26 -107 -23 -104 -40 -30 l-15 67 -38 0
c-26 0 -38 -5 -42 -17z"/>
<path d="M846 293 c-3 -10 -9 -43 -15 -73 -5 -31 -13 -68 -17 -84 -6 -26 -5
-27 22 -24 23 2 30 9 34 33 5 27 10 31 48 36 53 7 83 35 84 78 1 42 -13 51
-89 51 -50 0 -63 -3 -67 -17z m99 -33 c9 -15 -14 -40 -36 -40 -14 0 -19 7 -19
25 0 20 5 25 24 25 14 0 28 -5 31 -10z"/>
<path d="M194 266 c-11 -28 1 -51 27 -54 29 -3 44 18 34 49 -8 23 -53 26 -61
5z"/>
<path d="M1054 248 c-27 -13 -44 -49 -44 -93 0 -42 28 -62 61 -44 21 11 22 10
16 -25 -5 -33 -4 -36 18 -36 26 0 29 6 45 100 6 36 13 73 16 83 5 15 0 17 -28
16 -18 -1 -40 1 -48 4 -8 3 -25 1 -36 -5z m56 -49 c0 -29 -18 -59 -35 -59 -16
0 -20 35 -9 64 9 24 44 20 44 -5z"/>
</g>
</svg>
